<svg xmlns="http://www.w3.org/2000/svg" xmlns:xlink="http://www.w3.org/1999/xlink" width="32" height="32" preserveAspectRatio="xMidYMid meet" viewBox="0 0 32 32" style="-ms-transform: rotate(360deg); -webkit-transform: rotate(360deg); transform: rotate(360deg);"><path d="M16.005.052L6.636 9.427a13.106 13.106 0 0 0 0 18.636a13.105 13.105 0 0 0 18.629 0c5.297-5.188 5.297-13.563.115-18.636l-2.317 2.313c3.859 3.859 3.859 10.145 0 14.005c-3.86 3.859-10.145 3.859-14.005 0c-3.86-3.86-3.86-10.147 0-14.005l6.177-6.172l.776-.885zm4.744 5.183c-.973 0-1.765.792-1.765 1.765a1.763 1.763 0 1 0 1.765-1.765z" fill="#626262"/><rect x="0" y="0" width="32" height="32" fill="rgba(0, 0, 0, 0)" /></svg>